# xmcd CD database file
#
# Track frame offsets:
#	150
#	19835
#	38145
#	57070
#	71535
#	94282
#	112450
#	134032
#	137907
#	155467
#	171577
#
# Disc length: 2410 seconds
#
# Revision: 0
# Processed by: cddbd v1.5.1PL2 Copyright (c) Steve Scherf et al.
# Submitted via: CDex 1.51
#
DISCID=a809680b
DTITLE=Ozone - première couche....
DYEAR=1992
DGENRE=Québécois
TTITLE0=les géants
TTITLE1=entre l'air et l'eau
TTITLE2=donne
TTITLE3=revenir en arrière
TTITLE4=7-4-1
TTITLE5=l'étoile
TTITLE6=mon général
TTITLE7=trans
TTITLE8=naitre
TTITLE9=Niagara
TTITLE10=première couche....
EXTD=YEAR: 1992
EXTT0=
EXTT1=
EXTT2=
EXTT3=
EXTT4=
EXTT5=
EXTT6=
EXTT7=
EXTT8=
EXTT9=
EXTT10=
PLAYORDER=
